<svg width="600" height="398" viewBox="0 0 600 398" fill="none" xmlns="http://www.w3.org/2000/svg">
<g clip-path="url(#clip0_272_1224)">
<path d="M303.955 111.862C298.605 103.023 292.266 93.5854 282.338 90.6992C270.84 87.3568 259.03 93.9966 249.012 100.549C219.052 120.144 190.199 141.38 162.588 164.159L162.618 164.502C184.115 163.021 205.612 161.54 227.109 160.059C242.64 158.989 258.705 157.772 272.431 150.432C277.639 147.647 282.716 143.926 288.618 143.667C295.951 143.345 302.345 148.461 307.369 153.806C337.091 185.422 345.691 233.771 379.036 261.548C358.01 209.748 332.904 159.696 303.955 111.862Z" fill="#F2F2F2"/>
<path d="M486.649 380.027C483.362 375.881 482.019 374.91 478.777 370.725C452.379 336.619 427.567 301.361 404.341 264.95C388.565 240.222 373.571 215.018 359.36 189.34C352.594 177.132 346.014 164.828 339.619 152.429C334.657 142.815 329.805 133.143 325.064 123.414C323.709 120.635 322.391 117.843 321.08 115.045C317.992 108.466 314.96 101.854 311.706 95.3634C307.997 87.9659 303.482 80.2106 296.671 75.2407C293.572 72.886 289.865 71.4613 285.985 71.1331C280.441 70.7753 275.325 73.0623 270.516 75.5601C235.332 93.8877 202.392 116.866 172.599 143.013C142.729 169.218 116.031 198.824 93.0472 231.227C92.344 232.23 90.6813 231.272 91.391 230.262C94.1856 226.314 97.0356 222.409 99.941 218.546C136.067 170.55 180.363 129.275 230.804 96.6091C239.291 91.1153 247.937 85.8791 256.742 80.9005C261.18 78.39 265.637 75.9114 270.171 73.5861C274.616 71.3055 279.335 69.2549 284.412 69.1783C301.691 68.91 310.638 88.4578 316.783 101.611C318.714 105.751 320.669 109.877 322.647 113.991C330.123 129.61 337.886 145.087 345.937 160.421C350.906 169.888 355.983 179.3 361.17 188.656C377.31 217.793 394.465 246.339 412.635 274.296C436.705 311.328 460.583 344.042 488.004 378.672C488.759 379.631 487.41 380.998 486.649 380.027Z" fill="#E4E4E4"/>
<path d="M170.892 133.36C169.888 132.242 168.89 131.124 167.88 130.006C159.912 121.204 151.362 112.503 140.42 107.456C135.203 104.974 129.508 103.655 123.73 103.591C117.757 103.611 111.919 105.176 106.4 107.367C103.791 108.408 101.239 109.59 98.7261 110.848C95.8547 112.292 93.0345 113.832 90.2274 115.384C84.9579 118.297 79.7568 121.338 74.6241 124.506C64.4114 130.811 54.5186 137.598 44.9456 144.865C39.983 148.634 35.1229 152.527 30.3652 156.543C25.94 160.274 21.6044 164.104 17.3582 168.035C16.4502 168.872 15.0944 167.518 16.0025 166.681C17.1215 165.64 18.2535 164.605 19.3854 163.583C22.5828 160.695 25.8314 157.863 29.1312 155.086C35.1485 150.014 41.3217 145.138 47.6506 140.457C57.4923 133.175 67.6728 126.386 78.1921 120.092C83.4488 116.949 88.7778 113.938 94.1792 111.059C95.8101 110.19 97.46 109.341 99.129 108.536C102.916 106.628 106.851 105.027 110.895 103.751C116.625 101.9 122.686 101.305 128.667 102.007C134.441 102.846 140.004 104.769 145.063 107.673C155.806 113.672 164.139 122.947 172.247 132C173.066 132.919 171.716 134.28 170.892 133.36Z" fill="#E4E4E4"/>
<path d="M391.016 224.582L416.76 215.176L429.541 210.506C433.704 208.985 437.857 207.253 442.16 206.164C445.9 205.097 449.871 205.147 453.582 206.309C456.892 207.533 459.921 209.409 462.491 211.826C465.116 214.241 467.558 216.846 469.798 219.621C472.58 222.962 475.322 226.338 478.076 229.703C489.442 243.589 500.735 257.535 511.952 271.542C523.17 285.548 534.312 299.614 545.38 313.74C556.474 327.9 567.492 342.119 578.434 356.398C579.775 358.147 581.114 359.897 582.452 361.648C583.191 362.615 584.858 361.661 584.108 360.68C573.086 346.258 561.986 331.895 550.81 317.591C539.606 303.253 528.325 288.976 516.966 274.759C505.608 260.543 494.173 246.389 482.661 232.296C479.793 228.785 476.921 225.278 474.043 221.774C471.616 218.819 469.216 215.832 466.554 213.082C461.667 208.033 455.562 203.571 448.254 203.45C443.957 203.379 439.798 204.741 435.806 206.184C431.502 207.739 427.209 209.324 422.911 210.894L396.987 220.366L390.506 222.734C389.356 223.154 389.853 225.007 391.016 224.582Z" fill="#E4E4E4"/>
<path d="M137.032 118.533C123.95 111.816 107.196 113.132 95.1748 121.523C118.105 125.475 140.785 130.763 163.097 137.359C153.832 131.935 146.584 123.437 137.032 118.533Z" fill="#F2F2F2"/>
<path d="M95.046 121.5L92.5275 123.545C93.3794 122.829 94.265 122.158 95.1747 121.523C95.1318 121.516 95.0889 121.507 95.046 121.5Z" fill="#F2F2F2"/>
<path d="M461.521 224.676C458.987 221.594 456.247 218.368 452.457 217.116L448.918 217.256C475.857 264.807 512.239 306.358 555.832 339.357C524.395 301.13 492.958 262.903 461.521 224.676Z" fill="#F2F2F2"/>
<path d="M241.463 199.255C243.1 205.199 246.79 210.372 251.878 213.86C253.846 215.198 256.173 216.482 256.846 218.762C257.2 220.216 256.982 221.75 256.237 223.048C255.493 224.329 254.587 225.51 253.543 226.561L253.448 226.918C248.566 224.028 243.922 220.372 241.225 215.384C238.528 210.396 238.152 203.859 241.463 199.255Z" fill="#F2F2F2"/>
<path d="M403.996 340.714C405.634 346.658 409.323 351.831 414.412 355.319C416.379 356.657 418.706 357.941 419.379 360.221C419.733 361.675 419.515 363.209 418.77 364.507C418.026 365.788 417.121 366.969 416.076 368.02L415.981 368.377C411.099 365.487 406.455 361.831 403.758 356.843C401.061 351.855 400.685 345.318 403.996 340.714Z" fill="#F2F2F2"/>
<path d="M79.6271 330.959C81.2647 336.902 84.9542 342.076 90.0426 345.564C92.0098 346.902 94.3373 348.185 95.0103 350.466C95.3643 351.919 95.1462 353.453 94.4009 354.751C93.657 356.032 92.7518 357.213 91.7074 358.264L91.6121 358.621C86.7302 355.731 82.0858 352.075 79.3891 347.087C76.6924 342.099 76.316 335.562 79.6271 330.959Z" fill="#F2F2F2"/>
<path d="M452.895 71.0779C472.543 71.0779 488.471 55.1666 488.471 35.5389C488.471 15.9113 472.543 0 452.895 0C433.247 0 417.319 15.9113 417.319 35.5389C417.319 55.1666 433.247 71.0779 452.895 71.0779Z" fill="#FF4500"/>
<path d="M517.096 8.27178C499.854 5.94368 480.17 15.2532 475.701 32.0505C474.575 29.0639 472.528 26.5123 469.855 24.7643C467.182 23.0163 464.022 22.1624 460.831 22.326C457.641 22.4895 454.585 23.6621 452.105 25.6742C449.625 27.6864 447.85 30.4339 447.036 33.5199L449.01 34.9322C485.958 42.914 524.206 42.7413 561.08 34.426C549.087 21.8348 534.338 10.5998 517.096 8.27178Z" fill="#F0F0F0"/>
<path d="M443.154 55.6571C425.912 53.3289 406.228 62.6385 401.759 79.4358C400.633 76.4492 398.586 73.8976 395.913 72.1496C393.24 70.4016 390.08 69.5477 386.889 69.7112C383.699 69.8748 380.643 71.0473 378.163 73.0595C375.683 75.0716 373.908 77.8192 373.094 80.9052L375.068 82.3175C412.016 90.2993 450.263 90.1265 487.138 81.8113C475.145 69.2201 460.396 57.9851 443.154 55.6571Z" fill="#F0F0F0"/>
<path d="M593.638 64.6169C593.567 64.6171 593.496 64.6061 593.428 64.5843C408.986 6.31561 246.426 13.9353 142.534 30.588C128.395 32.8535 114.219 35.47 100.398 38.3656C96.8696 39.1039 93.2091 39.8954 89.5183 40.7195C85.1105 41.7001 80.7612 42.71 76.5908 43.7198C74.7897 44.1458 73.0237 44.5752 71.293 45.008C68.6713 45.6545 66.0111 46.3282 63.1595 47.0686C59.9731 47.8893 56.7356 48.7501 53.5349 49.6273C53.5232 49.6314 53.5113 49.6348 53.4992 49.6375L53.4995 49.6382C49.8843 50.6242 46.2881 51.6389 42.8105 52.6522C40.9283 53.1952 39.1108 53.7308 37.37 54.2596C37.1755 54.3133 37.0031 54.365 36.8284 54.4181L36.4544 54.5318C36.2378 54.5978 36.0239 54.6624 35.81 54.7237L35.7963 54.7278L35.7967 54.7285L35.2306 54.9041C34.5555 55.1082 33.8968 55.3076 33.2489 55.5063C16.1272 60.7789 6.71477 64.5299 6.62179 64.5666C6.53676 64.6007 6.44585 64.6176 6.35425 64.6166C6.26265 64.6155 6.17215 64.5965 6.08793 64.5605C6.0037 64.5245 5.92739 64.4723 5.86336 64.4069C5.79933 64.3414 5.74883 64.264 5.71475 64.1791C5.68066 64.0941 5.66367 64.0033 5.66472 63.9118C5.66577 63.8203 5.68485 63.7299 5.72088 63.6458C5.7569 63.5616 5.80916 63.4854 5.87467 63.4214C5.94019 63.3575 6.01767 63.307 6.1027 63.273C6.19637 63.2362 15.6548 59.4662 32.8388 54.1739C33.4891 53.9745 34.1495 53.7751 34.8266 53.5703L35.3525 53.4069C35.3706 53.4001 35.3886 53.3947 35.407 53.3892C35.6199 53.3287 35.8324 53.264 36.0484 53.1987L36.4231 53.0851C36.6097 53.0286 36.7936 52.9728 36.982 52.9211C38.7109 52.3957 40.5346 51.8588 42.4215 51.3137C45.9005 50.2997 49.5001 49.2851 53.118 48.2977C53.1293 48.2936 53.1409 48.2909 53.1521 48.2875C56.364 47.4076 59.6135 46.5426 62.8101 45.7192C65.6661 44.9781 68.3313 44.3031 70.9575 43.6552C72.6956 43.2231 74.4649 42.7928 76.2655 42.3643C80.4407 41.353 84.7988 40.3418 89.2145 39.3592C92.9111 38.5344 96.5777 37.7409 100.112 37.0019C113.954 34.1015 128.153 31.4809 142.313 29.2121C246.354 12.5355 409.147 4.90354 593.848 63.2559C594.007 63.306 594.142 63.4112 594.23 63.5525C594.318 63.6938 594.353 63.8618 594.327 64.0263C594.302 64.1907 594.219 64.3407 594.092 64.449C593.966 64.5573 593.805 64.6169 593.638 64.6169Z" fill="#CCCCCC"/>
<path d="M183.452 292.562C183.211 291.857 182.804 291.219 182.267 290.702C182.068 290.518 181.853 290.352 181.625 290.207C179.804 288.994 177.084 288.723 175.354 290.207C175.179 290.358 175.018 290.523 174.872 290.702C174.356 291.336 173.826 291.956 173.282 292.562C172.389 293.58 171.475 294.562 170.52 295.517C170.247 295.782 169.975 296.053 169.696 296.318C169.536 296.478 169.376 296.632 169.215 296.785C168.601 297.37 167.973 297.935 167.339 298.492C167.004 298.792 166.669 299.085 166.327 299.37C165.818 299.795 165.309 300.221 164.793 300.632C164.744 300.667 164.695 300.701 164.646 300.743C164.632 300.75 164.625 300.764 164.611 300.771C164.604 300.771 164.597 300.771 164.59 300.785C164.571 300.792 164.555 300.804 164.541 300.82C164.388 300.924 164.283 300.994 164.207 301.057C164.234 301.043 164.262 301.022 164.29 301.008C164.165 301.106 164.032 301.203 163.907 301.301C162.686 302.2 161.437 303.064 160.161 303.872C157.002 305.891 153.685 307.651 150.241 309.133C150.011 309.224 149.774 309.321 149.537 309.412C140.52 313.102 130.74 314.542 121.041 313.607C120.05 313.53 119.06 313.426 118.069 313.293C116.925 313.126 115.788 312.924 114.658 312.694C110.356 311.837 106.147 310.567 102.088 308.903C97.0113 306.581 92.1828 303.751 87.6764 300.457C86.9788 299.963 86.2743 299.468 85.5697 298.987C86.3719 297.022 87.1602 295.057 87.9275 293.078C88.3112 292.123 88.6809 291.169 89.0436 290.207C91.8967 282.799 94.5753 275.322 97.1424 267.817C99.7373 260.215 102.186 252.568 104.488 244.877C104.725 244.097 104.955 243.316 105.178 242.536C106.385 238.473 107.543 234.401 108.652 230.32C108.757 229.923 108.869 229.533 108.966 229.136C109.287 227.965 109.601 226.794 109.908 225.624C110.605 222.983 109.029 219.826 106.253 219.192C104.916 218.849 103.498 219.039 102.299 219.72C101.099 220.401 100.211 221.521 99.821 222.843C99.5211 223.972 99.2211 225.094 98.9142 226.223C97.4423 231.679 95.8937 237.117 94.2684 242.536C94.0312 243.316 93.7941 244.097 93.5569 244.877C89.9714 256.682 86.0348 268.368 81.7471 279.935C81.2309 281.336 80.7077 282.732 80.1775 284.123C79.9194 284.806 79.6613 285.489 79.3963 286.172C78.887 287.517 78.3639 288.862 77.8407 290.207C77.5407 290.994 77.2338 291.782 76.9269 292.562C76.7246 293.057 76.5293 293.552 76.3339 294.04C74.345 293.326 72.2844 292.831 70.1884 292.562L69.8535 292.52C68.2285 292.325 66.585 292.339 64.9636 292.562C62.5368 292.845 60.2018 293.657 58.1237 294.941C56.0457 296.224 54.2752 297.948 52.9375 299.991C49.6101 305.224 49.652 312.708 54.3187 317.154C59.1249 321.732 66.4006 321.697 72.0579 318.833C75.0558 317.213 77.5837 314.846 79.3963 311.962C80.0907 310.917 80.7287 309.835 81.3076 308.722C81.4541 308.82 81.6006 308.917 81.7471 309.022C82.3051 309.412 82.8632 309.809 83.4143 310.199C86.6252 312.523 90.0089 314.599 93.536 316.408C101.12 320.175 109.284 322.641 117.686 323.704C117.874 323.725 118.055 323.753 118.244 323.774C119.172 323.892 120.106 323.983 121.041 324.059C134.45 325.069 147.875 322.328 159.812 316.143C160.823 315.621 161.826 315.073 162.818 314.499C164.36 313.607 165.867 312.659 167.339 311.656C168.141 311.112 168.922 310.562 169.696 309.983C173.08 307.494 176.234 304.707 179.121 301.656C180.216 300.506 181.264 299.319 182.267 298.095C183.214 297.094 183.76 295.779 183.801 294.402C183.796 293.773 183.678 293.15 183.452 292.562ZM67.9422 309.161C68.0887 309.056 68.2352 308.945 68.3747 308.834C68.3329 308.938 68.1305 309.056 67.9422 309.161ZM70.1814 306.91C70.021 307.091 69.8745 307.273 69.714 307.454C69.2259 307.999 68.7016 308.512 68.1445 308.987C68.0678 309.056 67.9841 309.126 67.9004 309.189C67.8994 309.189 67.8985 309.189 67.8976 309.189C67.8968 309.19 67.896 309.19 67.8954 309.191C67.8947 309.192 67.8942 309.192 67.8939 309.193C67.8935 309.194 67.8933 309.195 67.8934 309.196C67.7926 309.241 67.6947 309.292 67.6004 309.349C67.3004 309.53 66.9935 309.698 66.6796 309.851C66.065 310.077 65.4327 310.252 64.7892 310.374C64.2947 310.41 63.7985 310.414 63.3034 310.387H63.2894C62.9478 310.312 62.6102 310.219 62.278 310.109C62.1105 310.025 61.9501 309.928 61.7897 309.83C61.7269 309.774 61.671 309.718 61.6362 309.684C61.568 309.621 61.5051 309.554 61.4479 309.482C61.4479 309.481 61.4477 309.48 61.4474 309.479C61.447 309.478 61.4465 309.477 61.4459 309.477C61.4452 309.476 61.4444 309.475 61.4436 309.475C61.4427 309.475 61.4418 309.475 61.4409 309.475C61.3641 309.335 61.2804 309.196 61.2037 309.056C61.1998 309.053 61.1973 309.048 61.1968 309.043C61.141 308.868 61.0921 308.687 61.0503 308.506C61.0351 308.188 61.0375 307.869 61.0572 307.551C61.1508 307.106 61.2767 306.668 61.4339 306.241C61.5752 305.938 61.7359 305.645 61.9153 305.363C61.9292 305.335 61.999 305.224 62.0757 305.098C62.0827 305.091 62.0827 305.091 62.0827 305.085C62.1873 304.966 62.2919 304.841 62.4036 304.729C62.5919 304.52 62.7942 304.339 62.9965 304.151C63.3899 303.893 63.7975 303.659 64.2172 303.447C64.8832 303.211 65.5665 303.027 66.2611 302.896C67.2853 302.815 68.3148 302.824 69.3374 302.924C70.306 303.092 71.2616 303.327 72.1974 303.628C71.6302 304.728 70.9845 305.785 70.2651 306.792C70.2372 306.834 70.2093 306.875 70.1814 306.91ZM62.4244 304.618C62.363 304.716 62.2904 304.807 62.2082 304.889C62.2635 304.787 62.3368 304.695 62.4244 304.618Z" fill="#3F3D56"/>
<path d="M162.484 221.394C162.421 223.582 162.358 225.77 162.295 227.958C162.163 232.815 162.026 237.674 161.884 242.536C161.737 248.006 161.584 253.474 161.423 258.94C161.347 261.762 161.268 264.584 161.186 267.406C160.97 275.009 160.756 282.609 160.544 290.207C160.523 290.994 160.496 291.775 160.475 292.562C160.37 296.332 160.265 300.102 160.161 303.872C160.042 307.962 159.926 312.053 159.812 316.143C159.728 319.209 159.642 322.278 159.554 325.349C158.926 347.599 158.298 369.849 157.67 392.099C157.644 393.477 157.084 394.791 156.109 395.765C155.133 396.74 153.818 397.299 152.439 397.325C151.055 397.314 149.73 396.76 148.752 395.782C147.773 394.805 147.218 393.482 147.207 392.099C147.556 379.584 147.909 367.069 148.267 354.553C148.581 343.237 148.9 331.92 149.223 320.603C149.328 316.875 149.432 313.145 149.537 309.412C149.697 303.795 149.855 298.179 150.011 292.562C150.032 291.775 150.06 290.994 150.081 290.207C150.095 289.517 150.116 288.834 150.137 288.144C150.444 277.239 150.751 266.331 151.057 255.421C151.183 251.128 151.304 246.833 151.42 242.536C151.56 237.637 151.699 232.741 151.839 227.846C151.902 225.693 151.957 223.547 152.02 221.394C152.047 220.016 152.606 218.702 153.582 217.727C154.557 216.753 155.873 216.194 157.252 216.167C158.636 216.179 159.96 216.733 160.939 217.71C161.918 218.688 162.472 220.011 162.484 221.394Z" fill="#3F3D56"/>
<path d="M449.483 222.844C443.997 243.596 437.44 264.05 429.838 284.125C427.741 289.663 425.595 295.189 423.301 300.649L423.829 299.4C422.805 302.001 421.497 304.481 419.929 306.795C419.823 306.944 419.714 307.092 419.604 307.238C420.146 306.546 420.249 306.409 419.913 306.828C419.735 307.037 419.56 307.248 419.377 307.452C418.889 307.998 418.365 308.511 417.808 308.987C417.668 309.107 417.526 309.224 417.382 309.339L418.036 308.831C417.96 309.01 417.427 309.247 417.261 309.348C416.724 309.672 416.163 309.956 415.584 310.197L416.833 309.671C415.884 310.053 414.893 310.324 413.882 310.479L415.273 310.293C414.279 310.43 413.271 310.441 412.274 310.325L413.665 310.511C412.85 310.399 412.052 310.185 411.29 309.872L412.54 310.399C412.134 310.222 411.742 310.014 411.369 309.775C411.18 309.652 410.598 309.211 411.358 309.792C412.149 310.395 411.46 309.844 411.297 309.683C411.162 309.55 411.039 309.405 410.907 309.269C410.292 308.638 411.602 310.353 411.184 309.616C410.96 309.247 410.756 308.866 410.571 308.476L411.098 309.724C410.858 309.13 410.688 308.51 410.591 307.877L410.778 309.266C410.678 308.478 410.677 307.681 410.775 306.893L410.588 308.283C410.716 307.403 410.949 306.542 411.282 305.718L410.755 306.967C410.987 306.412 411.262 305.877 411.577 305.365C411.722 305.1 411.892 304.85 412.085 304.618C412.119 304.629 411.2 305.672 411.688 305.146C411.815 305.008 411.935 304.863 412.064 304.726C412.27 304.508 412.492 304.308 412.709 304.101C413.438 303.408 411.69 304.774 412.53 304.225C413.14 303.825 413.781 303.476 414.448 303.181L413.198 303.707C414.315 303.249 415.486 302.935 416.683 302.774L415.292 302.961C416.791 302.788 418.305 302.806 419.799 303.014L418.408 302.827C420.3 303.114 422.149 303.633 423.913 304.374L422.663 303.847C426.423 305.46 429.753 307.854 433.077 310.201C436.287 312.523 439.67 314.598 443.196 316.407C450.78 320.174 458.944 322.642 467.347 323.706C479.398 325.181 491.627 323.608 502.911 319.134C514.195 314.659 524.174 307.425 531.932 298.096C532.878 297.093 533.424 295.778 533.464 294.4C533.454 293.016 532.904 291.69 531.932 290.705C530.012 288.944 526.387 288.447 524.533 290.705C522.776 292.847 520.888 294.878 518.878 296.786C517.94 297.675 516.977 298.537 515.988 299.371C515.424 299.848 514.852 300.315 514.272 300.772C513.997 300.989 513.143 301.566 514.455 300.635C514.154 300.848 513.866 301.081 513.569 301.3C509.176 304.535 504.415 307.241 499.386 309.359L500.636 308.832C495.239 311.094 489.571 312.645 483.775 313.447L485.166 313.26C479.202 314.044 473.162 314.035 467.201 313.234L468.591 313.421C462.632 312.603 456.803 311.017 451.252 308.703L452.502 309.23C447.145 306.862 442.061 303.92 437.339 300.456C434.882 298.638 432.29 297.009 429.587 295.582C426.438 293.975 423.028 292.939 419.516 292.524C412.931 291.75 406.222 294.311 402.602 299.994C399.271 305.224 399.314 312.707 403.979 317.154C408.784 321.734 416.06 321.695 421.722 318.83C427.175 316.071 430.451 310.339 432.754 304.934C437.938 292.77 442.527 280.326 446.803 267.818C451.033 255.443 454.87 242.944 458.312 230.319C458.738 228.755 459.158 227.19 459.572 225.623C460.271 222.983 458.693 219.825 455.918 219.194C454.581 218.85 453.163 219.038 451.962 219.719C450.761 220.401 449.872 221.521 449.483 222.844Z" fill="#3F3D56"/>
<path d="M501.684 221.393L499.8 288.146L497.927 354.551L496.868 392.099C496.88 393.482 497.435 394.804 498.413 395.782C499.392 396.76 500.716 397.314 502.1 397.326C503.479 397.299 504.794 396.74 505.769 395.766C506.745 394.791 507.305 393.477 507.331 392.099L509.214 325.347L511.088 258.942L512.147 221.393C512.135 220.011 511.58 218.688 510.602 217.711C509.623 216.733 508.299 216.179 506.915 216.167C505.536 216.194 504.221 216.753 503.245 217.727C502.27 218.702 501.71 220.016 501.684 221.393Z" fill="#3F3D56"/>
<path opacity="0.2" d="M320.596 373.462H322.221V299.568H360.119V297.949H322.221V266.769H351.488C351.059 266.224 350.617 265.686 350.163 265.155H322.221V244.561C321.683 244.332 321.142 244.112 320.596 243.904V265.155H288.751V238.769C288.205 238.794 287.668 238.831 287.126 238.877V265.155H261.721V245.468C261.175 245.71 260.638 245.963 260.105 246.23V265.155H238.748V266.769H260.105V297.949H238.748V299.568H260.105V373.462H261.721V299.568C265.057 299.567 268.361 300.223 271.444 301.498C274.526 302.774 277.327 304.643 279.687 307C282.046 309.357 283.917 312.155 285.194 315.234C286.47 318.313 287.127 321.614 287.126 324.947V373.462H288.751V299.568H320.596V373.462ZM261.721 297.949V266.769H287.126V297.949H261.721ZM288.751 297.949V266.769H289.388C293.487 266.77 297.545 267.576 301.332 269.143C305.118 270.711 308.558 273.007 311.456 275.903C314.354 278.798 316.653 282.235 318.221 286.018C319.789 289.801 320.596 293.855 320.596 297.949H288.751Z" fill="black"/>
<path d="M310.675 351.306C308.63 360.42 303.731 368.646 296.689 374.79C296.172 375.236 295.656 375.668 295.119 376.093C293.815 376.211 292.52 376.332 291.234 376.455C290.166 376.553 289.113 376.657 288.067 376.755L287.878 376.776L287.746 375.633L287.216 371.006C285.159 367.652 283.884 363.878 283.486 359.965C283.087 356.052 283.575 352.099 284.914 348.4C286.755 343.439 290.09 339.056 293.368 334.707C297.895 328.7 302.297 322.763 302.458 315.44C304.685 318.287 306.537 321.409 307.968 324.728C306.618 325.364 305.405 326.256 304.397 327.356C304.111 327.669 303.825 328.108 304.02 328.484C304.188 328.805 304.606 328.882 304.969 328.923C305.841 329.014 306.72 329.105 307.592 329.195C308.289 329.272 308.987 329.342 309.684 329.418C310.528 332.185 311.101 335.028 311.393 337.906C311.863 342.382 311.621 346.905 310.675 351.306Z" fill="#3F3D56"/>
<path d="M333.834 333.042C329.719 336.031 327.312 340.331 325.442 345.069C323.526 345.682 321.803 346.782 320.441 348.261C320.155 348.574 319.869 349.013 320.064 349.39C320.232 349.71 320.65 349.787 321.013 349.829C321.885 349.919 322.764 350.01 323.636 350.1C321.766 355.703 320.05 361.501 316.744 366.232C314.545 369.356 311.678 371.953 308.352 373.835C307.445 374.351 306.509 374.814 305.548 375.222C302.004 375.493 298.528 375.784 295.119 376.093C293.815 376.211 292.52 376.332 291.234 376.455C290.166 376.553 289.113 376.657 288.067 376.755C288.06 376.371 288.06 375.988 288.067 375.605C288.287 365.395 292.047 355.578 298.705 347.829C299.019 347.466 299.339 347.111 299.667 346.756C303.04 343.157 307.006 340.163 311.393 337.906C318.306 334.315 326.054 332.636 333.834 333.042Z" fill="#FF4500"/>
<path d="M292.441 372.88L291.638 375.25L291.234 376.455C290.166 376.553 289.113 376.657 288.067 376.755L287.878 376.776C286.72 376.894 285.569 377.013 284.418 377.131C284.119 376.783 283.819 376.427 283.526 376.065C276.244 367.257 272.749 355.928 273.804 344.554C274.859 333.179 280.378 322.685 289.155 315.363C288.234 320.178 289.308 324.791 291.073 329.369C290.885 329.446 290.704 329.523 290.529 329.606C289.179 330.241 287.966 331.134 286.958 332.233C286.672 332.547 286.386 332.986 286.581 333.362C286.748 333.683 287.167 333.76 287.53 333.801C288.402 333.892 289.281 333.982 290.152 334.073C290.85 334.15 291.548 334.219 292.245 334.296C292.573 334.331 292.901 334.366 293.229 334.401C293.278 334.505 293.319 334.603 293.368 334.707C295.356 339.014 297.498 343.341 298.705 347.829C299.007 348.955 299.245 350.097 299.416 351.25C299.953 355.147 299.605 359.115 298.398 362.86C297.19 366.604 295.154 370.029 292.441 372.88Z" fill="#FF4500"/>
<path d="M362.656 271.811C356.651 260.109 347.348 250.264 336.405 243.029C325.428 235.803 312.832 231.403 299.739 230.221C298.023 230.065 296.303 229.974 294.578 229.947C292.54 229.916 261.886 238.749 251.617 245.962C241.354 253.086 232.911 262.522 226.97 273.506C221.039 284.55 218.122 296.959 218.511 309.486C219.02 322.089 222.536 334.387 228.767 345.357C234.914 356.291 243.641 365.559 254.19 372.357C264.889 379.176 275.637 397.259 288.269 397.897C300.997 398.54 315.512 381.483 327.12 376.304C338.728 371.082 348.764 362.911 356.227 352.608C363.478 342.51 368.17 330.806 369.898 318.499C371.694 305.898 370.857 292.902 366.549 280.858C365.444 277.763 364.144 274.741 362.656 271.811C361.415 269.368 357.776 268.469 355.498 269.936C354.325 270.658 353.475 271.804 353.125 273.135C352.776 274.467 352.954 275.882 353.622 277.086C354.351 278.521 355.028 279.979 355.655 281.461L355.128 280.212C357.499 285.909 359.112 291.892 359.925 298.008L359.738 296.619C360.602 303.254 360.586 309.975 359.692 316.606L359.878 315.217C358.974 321.848 357.202 328.331 354.609 334.501L355.136 333.253C353.802 336.401 352.247 339.451 350.482 342.38C349.588 343.86 348.639 345.305 347.636 346.716C347.195 347.335 346.741 347.943 346.283 348.549C345.686 349.341 347.097 347.516 346.48 348.292C346.375 348.424 346.27 348.557 346.165 348.689C345.848 349.084 345.527 349.476 345.201 349.865C343.026 352.457 340.653 354.876 338.102 357.1C337.467 357.654 336.821 358.196 336.164 358.725C335.837 358.988 335.514 359.263 335.173 359.509C335.186 359.499 336.275 358.673 335.631 359.152C335.428 359.303 335.227 359.456 335.024 359.607C333.671 360.608 332.281 361.559 330.856 362.458C327.575 364.523 324.133 366.321 320.563 367.833L321.813 367.306C315.655 369.896 309.183 371.665 302.563 372.568L303.953 372.382C297.337 373.275 290.63 373.287 284.011 372.417L285.401 372.604C279.385 371.797 273.5 370.207 267.896 367.876L269.145 368.403C265.9 367.034 262.77 365.405 259.787 363.531C258.311 362.602 256.873 361.616 255.473 360.571C255.274 360.423 255.076 360.272 254.877 360.122C254.238 359.64 255.336 360.477 255.344 360.482C254.973 360.216 254.616 359.932 254.274 359.629C253.598 359.079 252.932 358.517 252.278 357.941C249.658 355.637 247.211 353.142 244.958 350.479C244.394 349.813 243.842 349.137 243.302 348.45C243.068 348.153 242.642 347.551 243.584 348.819C243.46 348.652 243.331 348.489 243.206 348.323C242.905 347.924 242.609 347.523 242.316 347.119C241.292 345.703 240.318 344.252 239.395 342.766C237.309 339.404 235.489 335.883 233.95 332.238L234.478 333.487C231.96 327.503 230.239 321.216 229.357 314.785L229.544 316.175C228.749 310.247 228.737 304.241 229.51 298.311L229.323 299.7C230.116 293.957 231.662 288.343 233.924 283.004L233.396 284.253C234.819 280.91 236.497 277.682 238.415 274.597C239.376 273.053 240.394 271.547 241.469 270.078C241.713 269.745 241.96 269.413 242.21 269.083C242.436 268.785 243.058 268.043 241.997 269.354C242.101 269.225 242.201 269.093 242.304 268.964C242.894 268.217 243.498 267.482 244.117 266.758C246.459 264.019 248.996 261.452 251.709 259.078C252.394 258.478 253.091 257.891 253.798 257.316C254.119 257.055 254.443 256.796 254.768 256.54C254.898 256.438 255.03 256.338 255.16 256.235C253.766 257.342 254.773 256.536 255.089 256.3C256.546 255.209 258.043 254.172 259.578 253.191C262.991 251.01 266.581 249.12 270.311 247.541L269.061 248.068C274.475 245.797 298.458 240.438 302.82 241.023L301.429 240.836C307.84 241.73 314.106 243.46 320.068 245.98L318.818 245.454C321.839 246.735 324.775 248.208 327.607 249.864C329.023 250.693 330.41 251.567 331.77 252.486C332.413 252.921 333.05 253.366 333.68 253.82C333.995 254.048 334.308 254.277 334.619 254.509C334.792 254.638 334.964 254.769 335.136 254.898C335.861 255.441 334.138 254.112 334.898 254.712C337.441 256.709 339.857 258.862 342.13 261.161C343.247 262.296 344.325 263.468 345.365 264.676C345.898 265.296 346.42 265.925 346.932 266.563C347.186 266.88 348.051 268.027 346.99 266.622C347.25 266.965 347.512 267.306 347.768 267.652C349.972 270.633 351.93 273.788 353.622 277.086C354.872 279.524 358.495 280.432 360.78 278.961C361.953 278.24 362.804 277.094 363.153 275.762C363.503 274.43 363.325 273.015 362.656 271.811Z" fill="#3F3D56"/>
<path d="M301.696 357.101C301.156 357.125 300.621 356.984 300.164 356.695C299.708 356.406 299.351 355.984 299.142 355.486C298.934 354.987 298.883 354.437 298.998 353.909C299.113 353.382 299.388 352.902 299.785 352.535C299.851 352.271 299.899 352.082 299.966 351.818C299.942 351.76 299.918 351.703 299.894 351.646C297.466 345.863 281.977 361.982 281.307 367.416C281.012 369.819 281.137 372.253 281.675 374.613C276.657 363.68 274.052 351.797 274.035 339.769C274.034 336.751 274.202 333.735 274.538 330.736C274.816 328.277 275.201 325.835 275.694 323.411C278.383 310.26 284.157 297.933 292.541 287.443C297.336 287.71 301.538 286.981 301.944 277.697C302.016 276.046 303.242 274.616 303.513 272.99C303.055 273.05 302.59 273.087 302.132 273.117C301.989 273.124 301.839 273.132 301.697 273.139L301.643 273.142C301.14 273.164 300.641 273.041 300.206 272.787C299.772 272.533 299.42 272.159 299.193 271.71C298.966 271.26 298.874 270.755 298.928 270.255C298.982 269.755 299.18 269.281 299.497 268.89C299.695 268.647 299.893 268.404 300.091 268.162C300.391 267.787 300.698 267.42 300.999 267.045C301.033 267.009 301.066 266.972 301.096 266.932C301.441 266.505 301.787 266.085 302.132 265.658C301.502 264.681 300.654 263.862 299.655 263.266C296.196 261.242 291.423 262.644 288.924 265.77C286.418 268.896 285.945 273.282 286.815 277.188C287.671 280.511 289.087 283.665 291.003 286.513C290.815 286.753 290.62 286.986 290.432 287.226C287.003 291.631 284.014 296.361 281.508 301.349C282.217 295.817 273.548 275.839 270.195 271.608C266.168 266.525 257.91 268.743 257.201 275.186C257.194 275.249 257.187 275.311 257.181 275.373C257.678 275.654 258.166 275.952 258.643 276.267C259.242 276.667 259.706 277.238 259.975 277.906C260.243 278.574 260.304 279.308 260.148 280.011C259.992 280.713 259.627 281.353 259.101 281.845C258.576 282.337 257.913 282.659 257.201 282.769L257.128 282.78C250.462 292.288 271.831 317.033 277.18 311.477C274.662 318.604 273.083 326.028 272.482 333.562C272.142 338.007 272.162 342.472 272.542 346.913L272.519 346.756C271.331 337.082 250.943 322.699 244.989 323.897C241.559 324.587 238.181 324.43 238.702 327.886C238.71 327.942 238.719 327.997 238.727 328.052C239.651 328.428 240.551 328.861 241.421 329.349C241.919 329.629 242.407 329.927 242.884 330.242C243.483 330.642 243.947 331.214 244.216 331.882C244.484 332.55 244.544 333.283 244.389 333.986C244.233 334.689 243.868 335.328 243.342 335.82C242.816 336.312 242.154 336.634 241.442 336.744L241.369 336.755C241.316 336.763 241.271 336.77 241.219 336.778C238.185 347.207 260.686 364.038 274.366 358.683H274.373C275.729 364.568 277.693 370.296 280.234 375.775H301.171C301.246 375.543 301.314 375.303 301.381 375.07C299.443 375.192 297.498 375.076 295.588 374.726C297.141 372.821 298.695 370.902 300.248 368.998C300.283 368.963 300.315 368.925 300.346 368.886C301.134 367.911 301.929 366.944 302.717 365.97L302.717 365.968C302.759 362.981 302.416 360.001 301.696 357.101L301.696 357.101ZM277.72 309.985L277.731 309.97L277.72 310V309.985ZM273.082 351.749L272.902 351.344C272.91 351.051 272.91 350.759 272.902 350.459C272.902 350.377 272.887 350.294 272.887 350.212C272.955 350.729 273.015 351.246 273.09 351.764L273.082 351.749Z" fill="#3F3D56"/>
<path d="M66.4425 313.579C70.6804 313.579 74.1158 310.147 74.1158 305.914C74.1158 301.68 70.6804 298.248 66.4425 298.248C62.2047 298.248 58.7693 301.68 58.7693 305.914C58.7693 310.147 62.2047 313.579 66.4425 313.579Z" fill="#3F3D56"/>
<path d="M158.521 397.2C162.759 397.2 166.195 393.768 166.195 389.535C166.195 385.301 162.759 381.87 158.521 381.87C154.284 381.87 150.848 385.301 150.848 389.535C150.848 393.768 154.284 397.2 158.521 397.2Z" fill="#3F3D56"/>
<path d="M508.003 397.2C512.241 397.2 515.676 393.768 515.676 389.535C515.676 385.301 512.241 381.87 508.003 381.87C503.765 381.87 500.33 385.301 500.33 389.535C500.33 393.768 503.765 397.2 508.003 397.2Z" fill="#3F3D56"/>
<path d="M526.837 299.642C531.075 299.642 534.511 296.21 534.511 291.977C534.511 287.743 531.075 284.312 526.837 284.312C522.599 284.312 519.164 287.743 519.164 291.977C519.164 296.21 522.599 299.642 526.837 299.642Z" fill="#3F3D56"/>
<path d="M504.515 228.564C508.753 228.564 512.188 225.132 512.188 220.899C512.188 216.666 508.753 213.234 504.515 213.234C500.277 213.234 496.842 216.666 496.842 220.899C496.842 225.132 500.277 228.564 504.515 228.564Z" fill="#3F3D56"/>
<path d="M184.331 291.977C184.327 293.935 183.569 295.816 182.214 297.231C180.86 298.647 179.013 299.488 177.055 299.58C175.097 299.673 173.178 299.01 171.696 297.729C170.214 296.447 169.282 294.646 169.092 292.697C168.902 290.748 169.47 288.801 170.677 287.259C171.885 285.717 173.64 284.697 175.579 284.411C177.518 284.125 179.492 284.595 181.094 285.723C182.696 286.851 183.803 288.551 184.185 290.472C184.283 290.967 184.332 291.472 184.331 291.977Z" fill="#3F3D56"/>
<path d="M337.796 250.863C342.034 250.863 345.47 247.431 345.47 243.198C345.47 238.965 342.034 235.533 337.796 235.533C333.558 235.533 330.123 238.965 330.123 243.198C330.123 247.431 333.558 250.863 337.796 250.863Z" fill="#3F3D56"/>
<path d="M261.761 243.198C261.757 245.156 260.999 247.037 259.644 248.452C258.29 249.868 256.443 250.709 254.485 250.801C252.527 250.894 250.608 250.231 249.126 248.95C247.644 247.668 246.712 245.867 246.522 243.918C246.332 241.969 246.9 240.022 248.107 238.48C249.315 236.938 251.069 235.918 253.008 235.632C254.947 235.346 256.922 235.816 258.524 236.944C260.126 238.072 261.233 239.772 261.615 241.693C261.713 242.188 261.762 242.693 261.761 243.198Z" fill="#3F3D56"/>
<path d="M162.707 220.899C162.702 222.857 161.944 224.738 160.59 226.153C159.235 227.569 157.388 228.41 155.43 228.502C153.472 228.595 151.554 227.932 150.072 226.651C148.589 225.37 147.657 223.568 147.467 221.619C147.278 219.671 147.845 217.723 149.053 216.181C150.26 214.639 152.015 213.619 153.954 213.333C155.893 213.047 157.868 213.517 159.47 214.645C161.072 215.773 162.178 217.473 162.56 219.394C162.659 219.889 162.708 220.394 162.707 220.899Z" fill="#3F3D56"/>
<path d="M418.017 316.366C422.255 316.366 425.69 312.934 425.69 308.701C425.69 304.468 422.255 301.036 418.017 301.036C413.779 301.036 410.344 304.468 410.344 308.701C410.344 312.934 413.779 316.366 418.017 316.366Z" fill="#3F3D56"/>
<path d="M297.337 246.682C303.502 246.682 308.499 241.69 308.499 235.533C308.499 229.375 303.502 224.383 297.337 224.383C291.173 224.383 286.176 229.375 286.176 235.533C286.176 241.69 291.173 246.682 297.337 246.682Z" fill="#3F3D56"/>
<path d="M599.169 397.786L0.830576 398C0.721502 398 0.613494 397.978 0.512723 397.937C0.411953 397.895 0.320396 397.834 0.24327 397.757C0.166143 397.68 0.104956 397.588 0.063215 397.488C0.0214744 397.387 0 397.279 0 397.17C0 397.061 0.0214744 396.953 0.063215 396.853C0.104956 396.752 0.166143 396.661 0.24327 396.584C0.320396 396.506 0.411953 396.445 0.512723 396.404C0.613494 396.362 0.721502 396.34 0.830576 396.34L599.169 396.126C599.389 396.127 599.6 396.215 599.755 396.37C599.91 396.526 599.998 396.736 599.998 396.956C599.998 397.176 599.91 397.386 599.755 397.542C599.6 397.697 599.389 397.785 599.169 397.786Z" fill="#CACACA"/>
</g>
<defs>
<clipPath id="clip0_272_1224">
<rect width="600" height="398" fill="white"/>
</clipPath>
</defs>
</svg>
