<svg width="80" height="64" viewBox="0 0 80 64" fill="none" xmlns="http://www.w3.org/2000/svg">
<path d="M20.3729 20.7167L6.83267 32L20.3729 43.2834C20.6498 43.505 20.8796 43.7795 21.049 44.091C21.2185 44.4025 21.324 44.7447 21.3596 45.0975C21.3952 45.4503 21.3601 45.8066 21.2563 46.1457C21.1525 46.4848 20.9821 46.7997 20.7552 47.0721C20.5282 47.3446 20.2491 47.569 19.9344 47.7323C19.6196 47.8955 19.2754 47.9944 18.922 48.0231C18.5686 48.0517 18.213 48.0096 17.876 47.8992C17.539 47.7888 17.2275 47.6123 16.9595 47.38L0.959219 34.0467C0.658988 33.7964 0.417442 33.4832 0.251682 33.1293C0.0859215 32.7753 0 32.3892 0 31.9984C0 31.6075 0.0859215 31.2214 0.251682 30.8675C0.417442 30.5135 0.658988 30.2003 0.959219 29.95L16.9595 16.6167C17.5032 16.1641 18.2045 15.946 18.909 16.0104C19.6135 16.0748 20.2636 16.4164 20.7163 16.9601C21.1689 17.5038 21.387 18.205 21.3227 18.9095C21.2583 19.614 20.9166 20.2641 20.3729 20.7167ZM79.0408 29.95L63.0405 16.6167C62.7712 16.3926 62.4605 16.2237 62.126 16.1197C61.7915 16.0156 61.4398 15.9785 61.091 16.0104C60.7421 16.0422 60.403 16.1425 60.0929 16.3055C59.7828 16.4684 59.5078 16.6909 59.2837 16.9601C58.8311 17.5038 58.6129 18.205 58.6773 18.9095C58.7417 19.614 59.0834 20.2641 59.6271 20.7167L73.1673 32L59.6271 43.2834C59.3502 43.505 59.1204 43.7795 58.951 44.091C58.7815 44.4025 58.676 44.7447 58.6404 45.0975C58.6048 45.4503 58.6399 45.8066 58.7437 46.1457C58.8475 46.4848 59.0179 46.7997 59.2448 47.0721C59.4718 47.3446 59.7509 47.569 60.0656 47.7323C60.3804 47.8955 60.7246 47.9944 61.078 48.0231C61.4314 48.0517 61.787 48.0096 62.124 47.8992C62.461 47.7888 62.7725 47.6123 63.0405 47.38L79.0408 34.0467C79.341 33.7964 79.5826 33.4832 79.7483 33.1293C79.9141 32.7753 80 32.3892 80 31.9984C80 31.6075 79.9141 31.2214 79.7483 30.8675C79.5826 30.5135 79.341 30.2003 79.0408 29.95ZM51.5769 0.160088C51.2477 0.0405758 50.8982 -0.0129271 50.5483 0.00263398C50.1985 0.0181951 49.8551 0.102516 49.5378 0.250781C49.2206 0.399046 48.9356 0.608351 48.6992 0.866747C48.4628 1.12514 48.2797 1.42757 48.1602 1.75675L26.8264 60.4233C26.7064 60.7527 26.6525 61.1025 26.6678 61.4528C26.6831 61.803 26.7673 62.1468 26.9156 62.4644C27.0639 62.7821 27.2734 63.0673 27.5321 63.304C27.7907 63.5406 28.0935 63.7239 28.4231 63.8433C28.7153 63.9472 29.0231 64.0002 29.3331 64C29.8808 64 30.4151 63.8314 30.8636 63.5171C31.3121 63.2028 31.6529 62.7581 31.8398 62.2433L53.1736 3.57675C53.2931 3.24757 53.3466 2.89808 53.3311 2.54822C53.3155 2.19836 53.2312 1.855 53.0829 1.53773C52.9346 1.22046 52.7253 0.9355 52.4669 0.699124C52.2085 0.462748 51.9061 0.279583 51.5769 0.160088Z" fill="#FF4500"/>
</svg>
