<svg width="24" height="24" viewBox="0 0 24 24" fill="none" xmlns="http://www.w3.org/2000/svg">
<path d="M12 24C5.37188 24 0 18.6281 0 12C0 5.37188 5.37188 0 12 0C18.6281 0 24 5.37188 24 12C24 18.6281 18.6281 24 12 24ZM17.5312 6.82969C17.0297 6.46406 16.3266 6.57656 15.9609 7.07812L10.3641 14.775L7.92188 12.3328C7.48125 11.8922 6.76875 11.8922 6.33281 12.3328C5.89688 12.7734 5.89219 13.4859 6.33281 13.9219L9.70781 17.2969C9.94219 17.5312 10.2609 17.6484 10.5891 17.625C10.9172 17.6016 11.2172 17.4328 11.4094 17.1656L17.7797 8.4C18.1453 7.89844 18.0328 7.19531 17.5312 6.82969Z" fill="#FF4500"/>
</svg>
