<svg width="64" height="64" viewBox="0 0 64 64" fill="none" xmlns="http://www.w3.org/2000/svg">
<path d="M64 32C64 14.325 49.675 0 32 0C14.325 0 0 14.325 0 32C0 49.675 14.325 64 32 64C49.675 64 64 49.675 64 32ZM33.875 16.875C35.05 15.7 36.95 15.7 38.1125 16.875C39.275 18.05 39.2875 19.95 38.1125 21.1125L27.2375 31.9875L38.1125 42.8625C39.2875 44.0375 39.2875 45.9375 38.1125 47.1C36.9375 48.2625 35.0375 48.275 33.875 47.1L20.875 34.125C19.7 32.95 19.7 31.05 20.875 29.8875L33.875 16.875Z" fill="#FF4500"/>
</svg>
