<svg width="64" height="64" viewBox="0 0 64 64" fill="none" xmlns="http://www.w3.org/2000/svg">
<path d="M0 32C0 49.675 14.325 64 32 64C49.675 64 64 49.675 64 32C64 14.325 49.675 0 32 0C14.325 0 0 14.325 0 32ZM30.125 47.125C28.95 48.3 27.05 48.3 25.8875 47.125C24.725 45.95 24.7125 44.05 25.8875 42.8875L36.7625 32.0125L25.8875 21.1375C24.7125 19.9625 24.7125 18.0625 25.8875 16.9C27.0625 15.7375 28.9625 15.725 30.125 16.9L43.125 29.875C44.3 31.05 44.3 32.95 43.125 34.1125L30.125 47.125Z" fill="#FF4500"/>
</svg>
