<svg width="56" height="56" viewBox="0 0 56 56" fill="none" xmlns="http://www.w3.org/2000/svg">
<path d="M18.7306 45.0911C18.7306 45.3227 18.471 45.508 18.1435 45.508C17.771 45.5427 17.5113 45.3574 17.5113 45.0911C17.5113 44.8595 17.771 44.6743 18.0984 44.6743C18.4371 44.6395 18.7306 44.8248 18.7306 45.0911ZM15.2194 44.57C15.1403 44.8016 15.3661 45.068 15.7048 45.1374C15.9984 45.2532 16.3371 45.1374 16.4048 44.9058C16.4726 44.6742 16.2581 44.4079 15.9194 44.3037C15.6258 44.2226 15.2984 44.3384 15.2194 44.57ZM20.2097 44.3732C19.8823 44.4542 19.6565 44.6743 19.6903 44.9406C19.7242 45.1722 20.0177 45.3227 20.3565 45.2417C20.6839 45.1606 20.9097 44.9406 20.8758 44.709C20.8419 44.489 20.5371 44.3384 20.2097 44.3732ZM27.6387 0C11.979 0 0 12.1934 0 28.2543C0 41.0961 7.88065 52.0852 19.1371 55.9528C20.5823 56.2192 21.0903 55.3044 21.0903 54.5517C21.0903 53.8337 21.0565 49.8735 21.0565 47.4418C21.0565 47.4418 13.1532 49.1787 11.4935 43.9911C11.4935 43.9911 10.2065 40.6214 8.35484 39.7529C8.35484 39.7529 5.76936 37.9349 8.53548 37.9696C8.53548 37.9696 11.3468 38.2012 12.8935 40.9572C15.3661 45.4269 19.5097 44.1416 21.1242 43.3773C21.3839 41.5246 22.1177 40.2392 22.9306 39.475C16.6194 38.7571 10.2516 37.8191 10.2516 26.6795C10.2516 23.4951 11.1097 21.8971 12.9161 19.8591C12.6226 19.1064 11.6629 16.0031 13.2097 11.9965C15.5694 11.2438 21 15.123 21 15.123C23.2581 14.4746 25.6855 14.1387 28.0903 14.1387C30.4952 14.1387 32.9226 14.4746 35.1806 15.123C35.1806 15.123 40.6113 11.2323 42.971 11.9965C44.5177 16.0146 43.5581 19.1064 43.2645 19.8591C45.071 21.9087 46.1774 23.5067 46.1774 26.6795C46.1774 37.8538 39.5274 38.7455 33.2161 39.475C34.2548 40.3898 35.1355 42.1267 35.1355 44.8479C35.1355 48.7503 35.1016 53.579 35.1016 54.5285C35.1016 55.2812 35.621 56.196 37.0548 55.9297C48.3452 52.0852 56 41.0961 56 28.2543C56 12.1934 43.2984 0 27.6387 0ZM10.9742 39.9382C10.8274 40.054 10.8613 40.3203 11.0532 40.5403C11.2339 40.7256 11.4935 40.8067 11.6403 40.6561C11.7871 40.5403 11.7532 40.274 11.5613 40.054C11.3806 39.8687 11.121 39.7876 10.9742 39.9382ZM9.75484 39.0002C9.67581 39.1508 9.78871 39.336 10.0145 39.4518C10.1952 39.5676 10.421 39.5329 10.5 39.3708C10.579 39.2202 10.4661 39.035 10.2403 38.9192C10.0145 38.8497 9.83387 38.8844 9.75484 39.0002ZM13.4129 43.1226C13.2323 43.2731 13.3 43.6205 13.5597 43.8405C13.8194 44.1068 14.1468 44.1416 14.2935 43.9563C14.4403 43.8058 14.3726 43.4584 14.1468 43.2384C13.8984 42.972 13.5597 42.9373 13.4129 43.1226ZM12.1258 41.4204C11.9452 41.5362 11.9452 41.8372 12.1258 42.1036C12.3065 42.3699 12.6113 42.4857 12.7581 42.3699C12.9387 42.2194 12.9387 41.9183 12.7581 41.652C12.6 41.3856 12.3065 41.2698 12.1258 41.4204Z" fill="white"/>
</svg>
