<svg width="64" height="64" viewBox="0 0 64 64" fill="none" xmlns="http://www.w3.org/2000/svg">
<path d="M6.92903 20.8258L20.0258 56.6968C10.8645 52.2581 4.55484 42.8645 4.55484 32C4.55484 28.0129 5.40645 24.2452 6.92903 20.8258ZM50.529 30.6194C50.529 27.2258 49.3161 24.8774 48.271 23.0452C46.8774 20.7871 45.5742 18.8645 45.5742 16.6065C45.5742 14.0774 47.4839 11.729 50.1806 11.729C50.2968 11.729 50.4129 11.7419 50.5419 11.7548C45.6516 7.27742 39.1484 4.54193 32 4.54193C22.4129 4.54193 13.9742 9.45807 9.05806 16.9161C9.70323 16.9419 10.3097 16.9548 10.8258 16.9548C13.6903 16.9548 18.1419 16.6065 18.1419 16.6065C19.6258 16.5161 19.7935 18.6968 18.3226 18.8645C18.3226 18.8645 16.8387 19.0323 15.1871 19.1226L25.1871 48.8516L31.2 30.8387L26.929 19.1226C25.4452 19.0323 24.0516 18.8645 24.0516 18.8645C22.5677 18.7742 22.7484 16.5161 24.2194 16.6065C24.2194 16.6065 28.7484 16.9548 31.4452 16.9548C34.3097 16.9548 38.7613 16.6065 38.7613 16.6065C40.2452 16.5161 40.4129 18.6968 38.9419 18.8645C38.9419 18.8645 37.4581 19.0323 35.8064 19.1226L45.729 48.6323L48.4645 39.4839C49.6258 35.6903 50.529 32.9677 50.529 30.6194ZM32.4774 34.4L24.2452 58.3355C26.7097 59.0581 29.3032 59.4581 32 59.4581C35.2 59.4581 38.2581 58.9032 41.1097 57.8968C41.0323 57.7806 40.9677 57.6516 40.9161 57.5226L32.4774 34.4ZM56.0903 18.8258C56.2065 19.7032 56.271 20.6323 56.271 21.6516C56.271 24.4387 55.7548 27.5613 54.1806 31.4839L45.7935 55.729C53.9613 50.9677 59.4452 42.129 59.4452 32C59.4452 27.2258 58.2323 22.7355 56.0903 18.8258ZM0 32C0 14.3226 14.3226 0 32 0C49.6774 0 64 14.3226 64 32C64 49.6774 49.6774 64 32 64C14.3226 64 0 49.6774 0 32ZM62.529 32C62.529 15.1355 48.8645 1.47097 32 1.47097C15.1355 1.47097 1.47097 15.1355 1.47097 32C1.47097 48.8645 15.1355 62.529 32 62.529C48.8645 62.529 62.529 48.8645 62.529 32Z" fill="#FF4500"/>
</svg>
