<svg width="600" height="353" viewBox="0 0 600 353" fill="none" xmlns="http://www.w3.org/2000/svg">
<path d="M0.000690308 349.746C-0.00928745 350.338 0.0892311 350.915 0.274663 351.349C0.460095 351.784 0.717296 352.041 0.989899 352.065H599C599.271 352.026 599.525 351.765 599.711 351.335C599.897 350.904 600 350.336 600 349.746C600 349.156 599.897 348.588 599.711 348.158C599.525 347.727 599.271 347.466 599 347.428H0.995183C0.722729 347.447 0.464984 347.701 0.278534 348.133C0.0920847 348.565 -0.00783516 349.14 0.000690308 349.731V349.746Z" fill="#E6E6E6"/>
<path d="M477.111 349.942H496.925V259.028C496.898 235.566 487.574 213.072 470.998 196.481C454.422 179.891 431.948 170.558 408.505 170.532H224.368C200.926 170.559 178.451 179.891 161.875 196.482C145.299 213.072 135.975 235.566 135.948 259.028V349.942H155.762V287.832C155.789 264.152 165.2 241.45 181.93 224.706C198.659 207.962 221.342 198.543 245.001 198.516H387.867C411.526 198.543 434.208 207.962 450.938 224.706C467.667 241.45 477.078 264.152 477.106 287.832L477.111 349.942Z" fill="#E6E6E6"/>
<path d="M236.343 302.38L215.224 295.982C213.851 290.334 213.158 284.542 213.161 278.73C213.171 277.417 213.555 276.134 214.267 275.031C214.978 273.929 215.989 273.052 217.181 272.503C218.373 271.954 219.696 271.757 220.996 271.933C222.295 272.11 223.518 272.653 224.521 273.499C235.846 283.222 252.435 288.41 263.141 299.489C267.572 304.146 270.899 309.74 272.876 315.859C274.853 321.977 275.429 328.462 274.561 334.833L279.185 349.796C268.841 349.049 258.781 346.066 249.699 341.053C240.617 336.04 232.729 329.115 226.579 320.757C223.176 316.034 220.382 310.901 218.261 305.478C227.216 304.462 236.343 302.38 236.343 302.38Z" fill="#F2F2F2"/>
<path d="M291.38 326.88L302.146 323.616C302.16 323.559 302.174 323.502 302.188 323.444C302.484 322.127 302.389 320.751 301.913 319.487C301.438 318.223 300.604 317.125 299.513 316.33C298.422 315.535 297.122 315.077 295.774 315.012C294.426 314.947 293.089 315.279 291.927 315.965C287.038 318.872 281.61 321.375 277.709 325.41C275.449 327.785 273.752 330.639 272.744 333.76C271.736 336.881 271.442 340.189 271.885 343.439L269.527 351.071C274.803 350.69 279.934 349.168 284.566 346.612C289.198 344.055 293.221 340.523 296.358 336.26C298.095 333.851 299.521 331.233 300.603 328.468C296.037 327.944 291.38 326.88 291.38 326.88Z" fill="#F2F2F2"/>
<path d="M378.561 103.485H336.621C336.028 103.486 335.459 103.723 335.04 104.143C334.621 104.564 334.386 105.134 334.387 105.728V172.041H380.802V105.728C380.802 105.433 380.744 105.141 380.631 104.869C380.519 104.597 380.354 104.35 380.146 104.142C379.938 103.933 379.691 103.768 379.419 103.656C379.147 103.543 378.856 103.485 378.561 103.485ZM357.732 141.163C356.42 141.157 355.164 140.632 354.237 139.704C353.309 138.776 352.785 137.518 352.779 136.206V128.557C352.779 127.243 353.301 125.982 354.23 125.052C355.159 124.123 356.418 123.601 357.732 123.601C359.046 123.601 360.305 124.123 361.234 125.052C362.163 125.982 362.685 127.243 362.685 128.557V136.206C362.679 137.518 362.155 138.776 361.227 139.704C360.3 140.632 359.044 141.157 357.732 141.163Z" fill="#3F3D56"/>
<path d="M448.011 0.000674578H268.732C267.192 0.0030496 265.715 0.616523 264.626 1.70664C263.537 2.79676 262.924 4.2746 262.922 5.81626V126.898C262.923 128.44 263.536 129.919 264.625 131.009C265.715 132.099 267.192 132.712 268.732 132.714H448.011C449.551 132.712 451.028 132.099 452.118 131.009C453.207 129.919 453.82 128.44 453.821 126.898V5.81558C453.819 4.27392 453.206 2.79608 452.117 1.70597C451.028 0.615848 449.551 0.0030496 448.011 0.000674578Z" fill="#3F3D56"/>
<path d="M446.514 4.20047H270.23C269.406 4.20267 268.616 4.53201 268.033 5.11628C267.451 5.70054 267.124 6.49206 267.124 7.31724V125.395C267.126 126.219 267.454 127.009 268.036 127.591C268.618 128.174 269.407 128.502 270.23 128.504H446.514C447.337 128.502 448.126 128.174 448.708 127.591C449.29 127.009 449.618 126.219 449.62 125.395V7.31654C449.62 6.49136 449.293 5.69985 448.711 5.11558C448.129 4.53132 447.339 4.20267 446.514 4.20047Z" fill="white"/>
<path d="M334.243 169.917V176.315C334.243 176.647 334.375 176.965 334.61 177.199C334.844 177.434 335.161 177.566 335.493 177.566H379.696C380.027 177.565 380.344 177.432 380.578 177.198C380.812 176.964 380.945 176.646 380.946 176.315V169.917H334.243Z" fill="#3F3D56"/>
<path d="M412.177 179.792H307.297C307.01 179.791 306.727 179.727 306.468 179.603C306.209 179.479 305.981 179.299 305.801 179.076C305.62 178.853 305.491 178.593 305.423 178.314C305.356 178.035 305.351 177.744 305.409 177.463L307.037 169.727C307.13 169.294 307.367 168.906 307.711 168.627C308.054 168.348 308.482 168.195 308.924 168.194H410.549C410.992 168.195 411.42 168.348 411.763 168.627C412.107 168.906 412.344 169.294 412.437 169.727L414.065 177.463C414.123 177.744 414.118 178.035 414.051 178.314C413.983 178.593 413.854 178.853 413.673 179.076C413.493 179.299 413.265 179.479 413.006 179.603C412.747 179.727 412.464 179.791 412.177 179.792Z" fill="#3F3D56"/>
<path d="M312.563 169.586H310.006C309.82 169.586 309.669 169.737 309.669 169.924V171.189C309.669 171.376 309.82 171.527 310.006 171.527H312.563C312.749 171.527 312.899 171.376 312.899 171.189V169.924C312.899 169.737 312.749 169.586 312.563 169.586Z" fill="#E6E6E6"/>
<path d="M319.024 169.586H316.467C316.281 169.586 316.131 169.737 316.131 169.924V171.189C316.131 171.376 316.281 171.527 316.467 171.527H319.024C319.21 171.527 319.361 171.376 319.361 171.189V169.924C319.361 169.737 319.21 169.586 319.024 169.586Z" fill="#E6E6E6"/>
<path d="M325.484 169.586H322.928C322.741 169.586 322.591 169.737 322.591 169.924V171.189C322.591 171.376 322.741 171.527 322.928 171.527H325.484C325.67 171.527 325.821 171.376 325.821 171.189V169.924C325.821 169.737 325.67 169.586 325.484 169.586Z" fill="#E6E6E6"/>
<path d="M331.944 169.586H329.388C329.202 169.586 329.051 169.737 329.051 169.924V171.189C329.051 171.376 329.202 171.527 329.388 171.527H331.944C332.13 171.527 332.281 171.376 332.281 171.189V169.924C332.281 169.737 332.13 169.586 331.944 169.586Z" fill="#E6E6E6"/>
<path d="M338.405 169.586H335.848C335.662 169.586 335.511 169.737 335.511 169.924V171.189C335.511 171.376 335.662 171.527 335.848 171.527H338.405C338.591 171.527 338.741 171.376 338.741 171.189V169.924C338.741 169.737 338.591 169.586 338.405 169.586Z" fill="#E6E6E6"/>
<path d="M344.865 169.586H342.308C342.122 169.586 341.971 169.737 341.971 169.924V171.189C341.971 171.376 342.122 171.527 342.308 171.527H344.865C345.051 171.527 345.201 171.376 345.201 171.189V169.924C345.201 169.737 345.051 169.586 344.865 169.586Z" fill="#E6E6E6"/>
<path d="M351.325 169.586H348.769C348.583 169.586 348.432 169.737 348.432 169.924V171.189C348.432 171.376 348.583 171.527 348.769 171.527H351.325C351.511 171.527 351.662 171.376 351.662 171.189V169.924C351.662 169.737 351.511 169.586 351.325 169.586Z" fill="#E6E6E6"/>
<path d="M357.786 169.586H355.23C355.044 169.586 354.893 169.737 354.893 169.924V171.189C354.893 171.376 355.044 171.527 355.23 171.527H357.786C357.972 171.527 358.123 171.376 358.123 171.189V169.924C358.123 169.737 357.972 169.586 357.786 169.586Z" fill="#E6E6E6"/>
<path d="M364.246 169.586H361.69C361.504 169.586 361.353 169.737 361.353 169.924V171.189C361.353 171.376 361.504 171.527 361.69 171.527H364.246C364.432 171.527 364.583 171.376 364.583 171.189V169.924C364.583 169.737 364.432 169.586 364.246 169.586Z" fill="#E6E6E6"/>
<path d="M370.706 169.586H368.15C367.964 169.586 367.813 169.737 367.813 169.924V171.189C367.813 171.376 367.964 171.527 368.15 171.527H370.706C370.892 171.527 371.043 171.376 371.043 171.189V169.924C371.043 169.737 370.892 169.586 370.706 169.586Z" fill="#E6E6E6"/>
<path d="M377.167 169.586H374.611C374.425 169.586 374.274 169.737 374.274 169.924V171.189C374.274 171.376 374.425 171.527 374.611 171.527H377.167C377.353 171.527 377.504 171.376 377.504 171.189V169.924C377.504 169.737 377.353 169.586 377.167 169.586Z" fill="#E6E6E6"/>
<path d="M383.627 169.586H381.071C380.885 169.586 380.734 169.737 380.734 169.924V171.189C380.734 171.376 380.885 171.527 381.071 171.527H383.627C383.813 171.527 383.964 171.376 383.964 171.189V169.924C383.964 169.737 383.813 169.586 383.627 169.586Z" fill="#E6E6E6"/>
<path d="M390.088 169.586H387.531C387.345 169.586 387.194 169.737 387.194 169.924V171.189C387.194 171.376 387.345 171.527 387.531 171.527H390.088C390.274 171.527 390.424 171.376 390.424 171.189V169.924C390.424 169.737 390.274 169.586 390.088 169.586Z" fill="#E6E6E6"/>
<path d="M396.548 169.586H393.991C393.805 169.586 393.655 169.737 393.655 169.924V171.189C393.655 171.376 393.805 171.527 393.991 171.527H396.548C396.734 171.527 396.885 171.376 396.885 171.189V169.924C396.885 169.737 396.734 169.586 396.548 169.586Z" fill="#E6E6E6"/>
<path d="M403.008 169.586H400.452C400.266 169.586 400.115 169.737 400.115 169.924V171.189C400.115 171.376 400.266 171.527 400.452 171.527H403.008C403.194 171.527 403.345 171.376 403.345 171.189V169.924C403.345 169.737 403.194 169.586 403.008 169.586Z" fill="#E6E6E6"/>
<path d="M409.469 169.586H406.912C406.726 169.586 406.576 169.737 406.576 169.924V171.189C406.576 171.376 406.726 171.527 406.912 171.527H409.469C409.655 171.527 409.806 171.376 409.806 171.189V169.924C409.806 169.737 409.655 169.586 409.469 169.586Z" fill="#E6E6E6"/>
<path d="M312.487 172.821H309.931C309.745 172.821 309.594 172.972 309.594 173.158V174.424C309.594 174.61 309.745 174.761 309.931 174.761H312.487C312.673 174.761 312.824 174.61 312.824 174.424V173.158C312.824 172.972 312.673 172.821 312.487 172.821Z" fill="#E6E6E6"/>
<path d="M318.947 172.821H316.391C316.205 172.821 316.054 172.972 316.054 173.158V174.424C316.054 174.61 316.205 174.761 316.391 174.761H318.947C319.133 174.761 319.284 174.61 319.284 174.424V173.158C319.284 172.972 319.133 172.821 318.947 172.821Z" fill="#E6E6E6"/>
<path d="M325.408 172.821H322.851C322.665 172.821 322.514 172.972 322.514 173.158V174.424C322.514 174.61 322.665 174.761 322.851 174.761H325.408C325.594 174.761 325.744 174.61 325.744 174.424V173.158C325.744 172.972 325.594 172.821 325.408 172.821Z" fill="#E6E6E6"/>
<path d="M331.869 172.821H329.312C329.126 172.821 328.975 172.972 328.975 173.158V174.424C328.975 174.61 329.126 174.761 329.312 174.761H331.869C332.055 174.761 332.205 174.61 332.205 174.424V173.158C332.205 172.972 332.055 172.821 331.869 172.821Z" fill="#E6E6E6"/>
<path d="M338.329 172.821H335.772C335.586 172.821 335.436 172.972 335.436 173.158V174.424C335.436 174.61 335.586 174.761 335.772 174.761H338.329C338.515 174.761 338.666 174.61 338.666 174.424V173.158C338.666 172.972 338.515 172.821 338.329 172.821Z" fill="#E6E6E6"/>
<path d="M344.789 172.821H342.232C342.046 172.821 341.896 172.972 341.896 173.158V174.424C341.896 174.61 342.046 174.761 342.232 174.761H344.789C344.975 174.761 345.126 174.61 345.126 174.424V173.158C345.126 172.972 344.975 172.821 344.789 172.821Z" fill="#E6E6E6"/>
<path d="M351.249 172.821H348.692C348.506 172.821 348.355 172.972 348.355 173.158V174.424C348.355 174.61 348.506 174.761 348.692 174.761H351.249C351.435 174.761 351.585 174.61 351.585 174.424V173.158C351.585 172.972 351.435 172.821 351.249 172.821Z" fill="#E6E6E6"/>
<path d="M357.709 172.821H355.153C354.967 172.821 354.816 172.972 354.816 173.158V174.424C354.816 174.61 354.967 174.761 355.153 174.761H357.709C357.895 174.761 358.046 174.61 358.046 174.424V173.158C358.046 172.972 357.895 172.821 357.709 172.821Z" fill="#E6E6E6"/>
<path d="M364.17 172.821H361.614C361.428 172.821 361.277 172.972 361.277 173.158V174.424C361.277 174.61 361.428 174.761 361.614 174.761H364.17C364.356 174.761 364.507 174.61 364.507 174.424V173.158C364.507 172.972 364.356 172.821 364.17 172.821Z" fill="#E6E6E6"/>
<path d="M370.63 172.821H368.073C367.887 172.821 367.737 172.972 367.737 173.158V174.424C367.737 174.61 367.887 174.761 368.073 174.761H370.63C370.816 174.761 370.967 174.61 370.967 174.424V173.158C370.967 172.972 370.816 172.821 370.63 172.821Z" fill="#E6E6E6"/>
<path d="M377.091 172.821H374.534C374.348 172.821 374.198 172.972 374.198 173.158V174.424C374.198 174.61 374.348 174.761 374.534 174.761H377.091C377.277 174.761 377.428 174.61 377.428 174.424V173.158C377.428 172.972 377.277 172.821 377.091 172.821Z" fill="#E6E6E6"/>
<path d="M383.551 172.821H380.995C380.809 172.821 380.658 172.972 380.658 173.158V174.424C380.658 174.61 380.809 174.761 380.995 174.761H383.551C383.737 174.761 383.888 174.61 383.888 174.424V173.158C383.888 172.972 383.737 172.821 383.551 172.821Z" fill="#E6E6E6"/>
<path d="M390.011 172.821H387.454C387.268 172.821 387.118 172.972 387.118 173.158V174.424C387.118 174.61 387.268 174.761 387.454 174.761H390.011C390.197 174.761 390.348 174.61 390.348 174.424V173.158C390.348 172.972 390.197 172.821 390.011 172.821Z" fill="#E6E6E6"/>
<path d="M396.472 172.821H393.916C393.73 172.821 393.579 172.972 393.579 173.158V174.424C393.579 174.61 393.73 174.761 393.916 174.761H396.472C396.658 174.761 396.809 174.61 396.809 174.424V173.158C396.809 172.972 396.658 172.821 396.472 172.821Z" fill="#E6E6E6"/>
<path d="M402.932 172.821H400.376C400.19 172.821 400.039 172.972 400.039 173.158V174.424C400.039 174.61 400.19 174.761 400.376 174.761H402.932C403.118 174.761 403.269 174.61 403.269 174.424V173.158C403.269 172.972 403.118 172.821 402.932 172.821Z" fill="#E6E6E6"/>
<path d="M409.392 172.821H406.836C406.65 172.821 406.499 172.972 406.499 173.158V174.424C406.499 174.61 406.65 174.761 406.836 174.761H409.392C409.578 174.761 409.729 174.61 409.729 174.424V173.158C409.729 172.972 409.578 172.821 409.392 172.821Z" fill="#E6E6E6"/>
<path d="M366.108 176.699H340.94C340.754 176.699 340.603 176.85 340.603 177.037V178.302C340.603 178.489 340.754 178.64 340.94 178.64H366.108C366.294 178.64 366.445 178.489 366.445 178.302V177.037C366.445 176.85 366.294 176.699 366.108 176.699Z" fill="#E6E6E6"/>
<path d="M420.23 33.8428V95.994C420.229 100.156 418.577 104.147 415.637 107.09C412.697 110.033 408.709 111.687 404.551 111.688H326.828C323.768 111.689 320.774 110.793 318.216 109.113C315.658 107.432 313.646 105.039 312.429 102.229C312.022 101.301 311.711 100.335 311.502 99.3435C313.154 99.9833 314.91 100.31 316.682 100.306H394.402C398.234 100.301 401.908 98.7751 404.618 96.063C407.328 93.3508 408.853 89.6739 408.858 85.8383V23.6878C408.861 21.9148 408.535 20.1566 407.896 18.5029C408.887 18.7131 409.854 19.0246 410.782 19.4327C413.589 20.651 415.979 22.6642 417.658 25.2245C419.336 27.7848 420.23 30.7805 420.23 33.8428Z" fill="#F2F2F2"/>
<path d="M342.945 55.522H330.503C330.173 55.522 329.856 55.3907 329.623 55.1572C329.389 54.9236 329.258 54.6068 329.258 54.2765C329.258 53.9462 329.389 53.6294 329.623 53.3958C329.856 53.1622 330.173 53.031 330.503 53.031H342.945C343.275 53.031 343.592 53.1622 343.825 53.3958C344.058 53.6294 344.19 53.9462 344.19 54.2765C344.19 54.6068 344.058 54.9236 343.825 55.1572C343.592 55.3907 343.275 55.522 342.945 55.522Z" fill="#FF4500"/>
<path d="M365.343 55.522H352.9C352.57 55.522 352.254 55.3907 352.021 55.1572C351.787 54.9236 351.656 54.6068 351.656 54.2765C351.656 53.9462 351.787 53.6294 352.021 53.3958C352.254 53.1622 352.57 53.031 352.9 53.031H365.343C365.673 53.031 365.989 53.1622 366.223 53.3958C366.456 53.6294 366.587 53.9462 366.587 54.2765C366.587 54.6068 366.456 54.9236 366.223 55.1572C365.989 55.3907 365.673 55.522 365.343 55.522Z" fill="#FF4500"/>
<path d="M376.541 65.4876H364.099C363.769 65.4876 363.452 65.3564 363.219 65.1228C362.985 64.8893 362.854 64.5725 362.854 64.2421C362.854 63.9118 362.985 63.5951 363.219 63.3615C363.452 63.1279 363.769 62.9967 364.099 62.9967H376.541C376.871 62.9967 377.188 63.1279 377.421 63.3615C377.654 63.5951 377.785 63.9118 377.785 64.2421C377.785 64.5725 377.654 64.8893 377.421 65.1228C377.188 65.3564 376.871 65.4876 376.541 65.4876Z" fill="#FF4500"/>
<path d="M354.212 65.4876H330.503C330.173 65.4876 329.856 65.3564 329.623 65.1228C329.389 64.8893 329.258 64.5725 329.258 64.2421C329.258 63.9118 329.389 63.5951 329.623 63.3615C329.856 63.1279 330.173 62.9967 330.503 62.9967H354.212C354.542 62.9967 354.859 63.1279 355.092 63.3615C355.325 63.5951 355.457 63.9118 355.457 64.2421C355.457 64.5725 355.325 64.8893 355.092 65.1228C354.859 65.3564 354.542 65.4876 354.212 65.4876Z" fill="#FF4500"/>
<path d="M399.006 55.522H375.297C374.967 55.522 374.65 55.3907 374.417 55.1572C374.184 54.9236 374.053 54.6068 374.053 54.2765C374.053 53.9462 374.184 53.6294 374.417 53.3958C374.65 53.1622 374.967 53.031 375.297 53.031H399.006C399.336 53.031 399.653 53.1622 399.886 53.3958C400.12 53.6294 400.251 53.9462 400.251 54.2765C400.251 54.6068 400.12 54.9236 399.886 55.1572C399.653 55.3907 399.336 55.522 399.006 55.522Z" fill="#FF4500"/>
<path d="M351.465 36.6557H327.755C327.425 36.6557 327.109 36.5244 326.875 36.2909C326.642 36.0573 326.511 35.7405 326.511 35.4102C326.511 35.0799 326.642 34.7631 326.875 34.5295C327.109 34.296 327.425 34.1647 327.755 34.1647H351.465C351.795 34.1647 352.111 34.296 352.345 34.5295C352.578 34.7631 352.709 35.0799 352.709 35.4102C352.709 35.7405 352.578 36.0573 352.345 36.2909C352.111 36.5244 351.795 36.6557 351.465 36.6557Z" fill="#FF4500"/>
<path d="M353.414 43.9315C353.181 43.9319 352.955 43.8595 352.765 43.7245C352.576 43.5895 352.434 43.3987 352.358 43.1787C352.283 42.9588 352.278 42.7207 352.345 42.4978C352.411 42.275 352.545 42.0785 352.729 41.9359L358.803 37.2124C359.046 37.0227 359.248 36.7842 359.395 36.5123C359.543 36.2403 359.632 35.9408 359.657 35.6326C359.682 35.3244 359.643 35.0143 359.543 34.7219C359.442 34.4295 359.282 34.1612 359.072 33.9341L353.973 28.4086C353.772 28.1914 353.666 27.9034 353.677 27.6078C353.689 27.3122 353.817 27.0334 354.034 26.8326C354.251 26.6318 354.539 26.5255 354.835 26.5371C355.13 26.5487 355.408 26.6772 355.609 26.8944L363.178 35.0952C363.283 35.2087 363.363 35.3427 363.413 35.4886C363.463 35.6346 363.483 35.7895 363.47 35.9434C363.457 36.0973 363.413 36.2468 363.34 36.3826C363.266 36.5185 363.165 36.6375 363.044 36.7324L354.097 43.6974C353.902 43.8496 353.661 43.9323 353.414 43.9322V43.9315Z" fill="#FF4500"/>
<path d="M326.555 43.9314C326.788 43.9318 327.014 43.8593 327.203 43.7244C327.393 43.5894 327.535 43.3985 327.611 43.1786C327.686 42.9586 327.691 42.7206 327.624 42.4977C327.558 42.2748 327.423 42.0784 327.24 41.9358L321.166 37.2123C320.922 37.0225 320.721 36.7841 320.574 36.5121C320.426 36.2402 320.337 35.9406 320.312 35.6324C320.287 35.3242 320.326 35.0141 320.426 34.7217C320.527 34.4294 320.687 34.1611 320.897 33.9339L325.994 28.4078C326.093 28.3002 326.17 28.1742 326.221 28.0368C326.271 27.8994 326.294 27.7533 326.289 27.607C326.283 27.4606 326.248 27.3168 326.187 27.1838C326.126 27.0508 326.039 26.9312 325.932 26.8318C325.824 26.7324 325.698 26.6551 325.561 26.6044C325.424 26.5537 325.278 26.5305 325.132 26.5363C324.985 26.542 324.842 26.5765 324.709 26.6379C324.576 26.6992 324.456 26.7861 324.357 26.8936L316.788 35.0944C316.683 35.2079 316.603 35.3418 316.553 35.4878C316.503 35.6338 316.484 35.7887 316.496 35.9425C316.509 36.0964 316.553 36.246 316.627 36.3818C316.7 36.5176 316.801 36.6367 316.923 36.7315L325.87 43.6924C326.065 43.8446 326.306 43.9273 326.553 43.9273L326.555 43.9314Z" fill="#FF4500"/>
<path d="M363.721 86.8414H340.012C339.682 86.8414 339.365 86.7102 339.132 86.4766C338.899 86.243 338.768 85.9262 338.768 85.5959C338.768 85.2656 338.899 84.9488 339.132 84.7152C339.365 84.4817 339.682 84.3505 340.012 84.3505H363.721C364.052 84.3505 364.368 84.4817 364.601 84.7152C364.835 84.9488 364.966 85.2656 364.966 85.5959C364.966 85.9262 364.835 86.243 364.601 86.4766C364.368 86.7102 364.052 86.8414 363.721 86.8414Z" fill="#FF4500"/>
<path d="M367.899 93.0035C367.666 93.0039 367.44 92.9315 367.251 92.7965C367.061 92.6615 366.919 92.4707 366.844 92.2507C366.768 92.0308 366.763 91.7927 366.83 91.5699C366.896 91.347 367.031 91.1505 367.214 91.0079L373.288 86.2845C373.532 86.0947 373.733 85.8563 373.881 85.5843C374.028 85.3124 374.117 85.0128 374.142 84.7046C374.167 84.3964 374.129 84.0863 374.028 83.7939C373.927 83.5015 373.767 83.2332 373.558 83.0061L368.461 77.4834C368.26 77.2662 368.154 76.9782 368.166 76.6827C368.177 76.3872 368.306 76.1084 368.523 75.9077C368.74 75.707 369.027 75.6008 369.323 75.6125C369.618 75.6242 369.896 75.7527 370.097 75.9699L377.661 84.1686C377.765 84.2821 377.845 84.4161 377.895 84.562C377.946 84.708 377.965 84.8629 377.952 85.0168C377.94 85.1706 377.895 85.3202 377.822 85.456C377.749 85.5918 377.648 85.7109 377.526 85.8058L368.579 92.7666C368.383 92.9189 368.143 93.0016 367.895 93.0015L367.899 93.0035Z" fill="#FF4500"/>
<path d="M326.555 93.0036C326.787 93.004 327.014 92.9316 327.203 92.7966C327.392 92.6616 327.535 92.4707 327.61 92.2508C327.686 92.0308 327.69 91.7928 327.624 91.5699C327.558 91.3471 327.423 91.1506 327.24 91.008L321.166 86.2845C320.922 86.0947 320.72 85.8563 320.573 85.5844C320.426 85.3124 320.337 85.0129 320.312 84.7047C320.286 84.3965 320.325 84.0864 320.426 83.794C320.526 83.5016 320.687 83.2333 320.896 83.0061L325.993 77.48C326.194 77.2628 326.3 76.9748 326.288 76.6793C326.276 76.3838 326.148 76.105 325.931 75.9043C325.714 75.7036 325.426 75.5975 325.131 75.6091C324.836 75.6208 324.557 75.7493 324.357 75.9665L316.79 84.1687C316.685 84.2821 316.605 84.4161 316.555 84.5621C316.505 84.7081 316.485 84.8629 316.498 85.0168C316.511 85.1707 316.555 85.3203 316.628 85.4561C316.702 85.5919 316.803 85.711 316.924 85.8058L325.872 92.7667C326.067 92.919 326.307 93.0016 326.555 93.0016V93.0036Z" fill="#FF4500"/>
<path d="M328.67 89.5125L333.654 78.1017C333.786 77.7994 334.033 77.562 334.34 77.4418C334.647 77.3216 334.989 77.3284 335.291 77.4607C335.593 77.5929 335.83 77.8399 335.95 78.1472C336.07 78.4544 336.063 78.7969 335.931 79.0992L330.948 90.51C330.815 90.8123 330.569 91.0496 330.262 91.1698C329.955 91.29 329.613 91.2833 329.311 91.151C329.009 91.0187 328.771 90.7718 328.651 90.4645C328.531 90.1572 328.538 89.8148 328.67 89.5125Z" fill="#FF4500"/>
<path d="M199.12 50.636C168.085 59.2015 134.101 65.6457 121.925 55.6448C128.592 44.5358 132.437 33.5872 132.76 22.8333C132.834 17.9145 134.824 13.219 138.307 9.74805C140.613 7.51824 143.397 5.84388 146.447 4.85221C149.496 3.86054 152.731 3.57766 155.907 4.02504L163.961 5.15652C164.232 5.19475 164.502 5.23803 164.77 5.28638C168.636 6.01949 172.176 7.94604 174.892 10.7955C177.608 13.645 179.364 17.2744 179.914 21.174C181.612 32.8328 187.318 42.9243 199.12 50.636Z" fill="#2F2E41"/>
<path d="M229.056 161.228L241.121 163.715C242.042 163.905 242.91 164.298 243.661 164.866C244.411 165.434 245.026 166.161 245.461 166.997C245.896 167.832 246.139 168.753 246.173 169.694C246.208 170.635 246.033 171.572 245.66 172.437C245.301 173.273 244.766 174.022 244.092 174.633C243.417 175.244 242.62 175.702 241.753 175.977C240.886 176.252 239.97 176.337 239.067 176.226C238.165 176.115 237.296 175.811 236.522 175.335L218.066 163.972L186.719 90.2177L202.956 85.5205L229.056 161.228Z" fill="#ED9DA0"/>
<path d="M143.109 258.008L133.974 260.666L127.059 246.373L134.091 242.706L143.109 258.008Z" fill="#A0616A"/>
<path d="M139.711 319.46L125.254 316.49L127.517 297.217L139.959 297.811L139.711 319.46Z" fill="#ED9DA0"/>
<path d="M139.636 244.646L127.766 252.465L82.1065 200.775C81.1162 199.654 80.385 198.328 79.9648 196.891C79.5447 195.455 79.446 193.944 79.6758 192.465C79.9056 190.986 80.4581 189.576 81.2942 188.335C82.1303 187.094 83.2294 186.053 84.5132 185.285L141.392 151.269L150.104 176.317L120.484 204.137L139.636 244.646Z" fill="#2F2E41"/>
<path d="M149.634 271.703L149.544 271.819C148.785 276.266 147.453 280.321 144.477 283.257C143.594 285.249 142.01 286.845 140.026 287.742C138.043 288.638 135.799 288.772 133.722 288.118C131.764 287.501 130.081 286.223 128.96 284.501C127.84 282.779 127.352 280.721 127.58 278.679L129.798 258.834C135.119 257.61 139.178 254.581 141.232 248.688L146.404 252.211C147.934 253.246 149.237 254.583 150.235 256.138C151.232 257.694 151.902 259.437 152.204 261.261C152.506 263.085 152.434 264.951 151.991 266.746C151.549 268.54 150.746 270.226 149.631 271.7L149.634 271.703Z" fill="#2F2E41"/>
<path d="M171.085 57.3331L142.279 81.2102L140.035 71.3819L145.063 63.7144C146.459 56.185 145.557 47.8889 143.16 39.0858L161.953 39.103C162.765 46.2117 165.533 52.4204 171.085 57.3331Z" fill="#ED9DA0"/>
<path d="M155.262 46.3864C165.354 46.3864 173.535 38.1985 173.535 28.0983C173.535 17.9981 165.354 9.81023 155.262 9.81023C145.171 9.81023 136.99 17.9981 136.99 28.0983C136.99 38.1985 145.171 46.3864 155.262 46.3864Z" fill="#ED9DA0"/>
<path d="M179.195 119.966L140.308 131.824L137.282 117.981C129.994 108.187 126.826 99.2488 131.594 91.9557L129.195 80.9773C136.077 75.5534 141.49 70.0045 144.462 64.2469L168.388 54.8898L185.977 55.9729L191.171 73.3934L179.195 119.966Z" fill="#FF4500"/>
<path d="M206.823 87.4658C198.533 87.3777 190.421 89.8656 183.603 94.5862L185.978 55.9723C188.387 56.2943 190.671 57.2387 192.606 58.7125C194.54 60.1863 196.058 62.1386 197.009 64.3775L206.823 87.4658Z" fill="#FF4500"/>
<path d="M139.514 302.211L127.171 299.172L128.988 194.204L145.562 176.037L141.851 153.007L139.451 127.208L179.936 117.161C193.62 142.029 201.891 164.64 189.818 178.763L139.514 302.211Z" fill="#2F2E41"/>
<path d="M134.724 338.364L134.569 338.425C131.222 342.314 127.543 345.487 122.919 346.602C120.891 348.026 118.41 348.653 115.949 348.362C113.489 348.071 111.222 346.883 109.581 345.025C108.033 343.273 107.142 341.038 107.059 338.7C106.976 336.363 107.708 334.07 109.128 332.213L122.932 314.164C128.839 316.098 134.573 315.527 140.032 310.986L143.008 317.463C143.893 319.371 144.381 321.44 144.441 323.543C144.501 325.647 144.133 327.74 143.358 329.696C142.583 331.652 141.418 333.429 139.933 334.919C138.449 336.41 136.678 337.582 134.726 338.364H134.724Z" fill="#2F2E41"/>
<path d="M92.5531 166.61L81.9576 174.856C81.0974 175.497 80.4264 176.359 80.0154 177.351C79.6044 178.342 79.4687 179.427 79.6227 180.489C79.8158 181.566 80.2833 182.575 80.9801 183.418C81.677 184.261 82.5794 184.909 83.6002 185.301C86.8957 186.653 90.778 185.454 92.4882 182.557L100.149 169.566L122.071 142.806L135.286 111.277L122.073 109.019L92.5531 166.61Z" fill="#ED9DA0"/>
<path d="M137.453 113.405C130.435 111.285 123.862 110.036 118.764 111.685C119.832 98.4488 122.035 86.6256 129.195 80.9752L139.373 82.1723L137.453 113.405Z" fill="#FF4500"/>
<path d="M175.66 23.8577L136.58 21.4511L137.063 13.6282C150.705 4.4216 163.732 5.2238 176.143 16.0348L175.66 23.8577Z" fill="#2F2E41"/>
<path d="M528.42 325.918C529.705 335.066 530.111 341.95 520.207 343.963C510.905 345.854 508.624 338.029 507.339 328.881C506.053 319.733 505.24 312.36 515.551 310.836C527.291 309.1 527.134 316.77 528.42 325.918Z" fill="#FF4500"/>
<path d="M587.146 317.665C588.432 326.813 591.792 333.282 578.933 335.71C569.041 337.578 567.351 329.775 566.065 320.627C564.779 311.479 565.344 304.884 574.278 302.582C582.681 300.417 585.861 308.517 587.146 317.665Z" fill="#FF4500"/>
<path d="M577.053 311.405L518.327 319.659L520.232 333.211L578.958 324.958L577.053 311.405Z" fill="#FF4500"/>
</svg>
